<mxfile host="app.diagrams.net" modified="2024-09-14T07:02:49.046Z" agent="Mozilla/5.0 (Windows NT 10.0; Win64; x64) AppleWebKit/537.36 (KHTML, like Gecko) Chrome/128.0.0.0 Safari/537.36 Edg/128.0.0.0" etag="pTFxF0mKpasIg8GwffrR" version="24.4.4" type="github">
  <diagram name="第 1 页" id="xmq0lWWXcpzHtUZCV0zi">
    <mxGraphModel dx="1725" dy="953" grid="1" gridSize="10" guides="1" tooltips="1" connect="1" arrows="1" fold="1" page="1" pageScale="1" pageWidth="827" pageHeight="1169" math="0" shadow="0">
      <root>
        <mxCell id="0" />
        <mxCell id="1" parent="0" />
        <mxCell id="6CWQDum9UevPDlx2oe-Q-31" style="edgeStyle=orthogonalEdgeStyle;rounded=0;orthogonalLoop=1;jettySize=auto;html=1;entryX=0.5;entryY=0;entryDx=0;entryDy=0;" edge="1" parent="1" source="6CWQDum9UevPDlx2oe-Q-7" target="6CWQDum9UevPDlx2oe-Q-8">
          <mxGeometry relative="1" as="geometry" />
        </mxCell>
        <mxCell id="6CWQDum9UevPDlx2oe-Q-7" value="开始" style="ellipse;whiteSpace=wrap;html=1;" vertex="1" parent="1">
          <mxGeometry x="240" y="40" width="160" height="80" as="geometry" />
        </mxCell>
        <mxCell id="6CWQDum9UevPDlx2oe-Q-19" style="edgeStyle=orthogonalEdgeStyle;rounded=0;orthogonalLoop=1;jettySize=auto;html=1;entryX=0.5;entryY=0;entryDx=0;entryDy=0;" edge="1" parent="1" source="6CWQDum9UevPDlx2oe-Q-8" target="6CWQDum9UevPDlx2oe-Q-18">
          <mxGeometry relative="1" as="geometry" />
        </mxCell>
        <mxCell id="6CWQDum9UevPDlx2oe-Q-26" value="通过" style="edgeLabel;html=1;align=center;verticalAlign=middle;resizable=0;points=[];" vertex="1" connectable="0" parent="6CWQDum9UevPDlx2oe-Q-19">
          <mxGeometry x="-0.25" y="-1" relative="1" as="geometry">
            <mxPoint as="offset" />
          </mxGeometry>
        </mxCell>
        <mxCell id="6CWQDum9UevPDlx2oe-Q-41" style="edgeStyle=orthogonalEdgeStyle;rounded=0;orthogonalLoop=1;jettySize=auto;html=1;entryX=1;entryY=0.5;entryDx=0;entryDy=0;" edge="1" parent="1" source="6CWQDum9UevPDlx2oe-Q-8" target="6CWQDum9UevPDlx2oe-Q-34">
          <mxGeometry relative="1" as="geometry">
            <Array as="points">
              <mxPoint x="640" y="200" />
              <mxPoint x="640" y="1040" />
            </Array>
          </mxGeometry>
        </mxCell>
        <mxCell id="6CWQDum9UevPDlx2oe-Q-44" value="不通过" style="edgeLabel;html=1;align=center;verticalAlign=middle;resizable=0;points=[];" vertex="1" connectable="0" parent="6CWQDum9UevPDlx2oe-Q-41">
          <mxGeometry x="-0.8447" relative="1" as="geometry">
            <mxPoint x="18" as="offset" />
          </mxGeometry>
        </mxCell>
        <mxCell id="6CWQDum9UevPDlx2oe-Q-8" value="检查输入影像&lt;div&gt;波段数和数据类型&lt;/div&gt;" style="rhombus;whiteSpace=wrap;html=1;" vertex="1" parent="1">
          <mxGeometry x="240" y="160" width="160" height="80" as="geometry" />
        </mxCell>
        <mxCell id="6CWQDum9UevPDlx2oe-Q-15" value="" style="edgeStyle=orthogonalEdgeStyle;rounded=0;orthogonalLoop=1;jettySize=auto;html=1;exitX=0;exitY=0.5;exitDx=0;exitDy=0;" edge="1" parent="1" source="6CWQDum9UevPDlx2oe-Q-10" target="6CWQDum9UevPDlx2oe-Q-14">
          <mxGeometry relative="1" as="geometry" />
        </mxCell>
        <mxCell id="6CWQDum9UevPDlx2oe-Q-24" value="小于512" style="edgeLabel;html=1;align=center;verticalAlign=middle;resizable=0;points=[];" vertex="1" connectable="0" parent="6CWQDum9UevPDlx2oe-Q-15">
          <mxGeometry x="-0.2143" y="1" relative="1" as="geometry">
            <mxPoint x="39" y="-1" as="offset" />
          </mxGeometry>
        </mxCell>
        <mxCell id="6CWQDum9UevPDlx2oe-Q-17" style="edgeStyle=orthogonalEdgeStyle;rounded=0;orthogonalLoop=1;jettySize=auto;html=1;" edge="1" parent="1" source="6CWQDum9UevPDlx2oe-Q-10" target="6CWQDum9UevPDlx2oe-Q-16">
          <mxGeometry relative="1" as="geometry" />
        </mxCell>
        <mxCell id="6CWQDum9UevPDlx2oe-Q-25" value="大于512" style="edgeLabel;html=1;align=center;verticalAlign=middle;resizable=0;points=[];" vertex="1" connectable="0" parent="6CWQDum9UevPDlx2oe-Q-17">
          <mxGeometry x="0.2222" y="-1" relative="1" as="geometry">
            <mxPoint x="-79" y="-2" as="offset" />
          </mxGeometry>
        </mxCell>
        <mxCell id="6CWQDum9UevPDlx2oe-Q-10" value="检查影像长宽" style="rhombus;whiteSpace=wrap;html=1;" vertex="1" parent="1">
          <mxGeometry x="240" y="520" width="160" height="80" as="geometry" />
        </mxCell>
        <mxCell id="6CWQDum9UevPDlx2oe-Q-35" style="edgeStyle=orthogonalEdgeStyle;rounded=0;orthogonalLoop=1;jettySize=auto;html=1;entryX=0;entryY=0.5;entryDx=0;entryDy=0;exitX=0.5;exitY=1;exitDx=0;exitDy=0;" edge="1" parent="1" source="6CWQDum9UevPDlx2oe-Q-14" target="6CWQDum9UevPDlx2oe-Q-32">
          <mxGeometry relative="1" as="geometry">
            <Array as="points">
              <mxPoint x="120" y="800" />
            </Array>
          </mxGeometry>
        </mxCell>
        <mxCell id="6CWQDum9UevPDlx2oe-Q-14" value="全图处理" style="rounded=1;whiteSpace=wrap;html=1;" vertex="1" parent="1">
          <mxGeometry x="40" y="640" width="160" height="80" as="geometry" />
        </mxCell>
        <mxCell id="6CWQDum9UevPDlx2oe-Q-37" style="edgeStyle=orthogonalEdgeStyle;rounded=0;orthogonalLoop=1;jettySize=auto;html=1;entryX=1;entryY=0.5;entryDx=0;entryDy=0;exitX=0.5;exitY=1;exitDx=0;exitDy=0;" edge="1" parent="1" source="6CWQDum9UevPDlx2oe-Q-16" target="6CWQDum9UevPDlx2oe-Q-32">
          <mxGeometry relative="1" as="geometry">
            <Array as="points">
              <mxPoint x="520" y="800" />
            </Array>
          </mxGeometry>
        </mxCell>
        <mxCell id="6CWQDum9UevPDlx2oe-Q-16" value="分块处理" style="rounded=1;whiteSpace=wrap;html=1;" vertex="1" parent="1">
          <mxGeometry x="440" y="640" width="160" height="80" as="geometry" />
        </mxCell>
        <mxCell id="6CWQDum9UevPDlx2oe-Q-22" style="edgeStyle=orthogonalEdgeStyle;rounded=0;orthogonalLoop=1;jettySize=auto;html=1;entryX=0.5;entryY=0;entryDx=0;entryDy=0;" edge="1" parent="1" source="6CWQDum9UevPDlx2oe-Q-18" target="6CWQDum9UevPDlx2oe-Q-21">
          <mxGeometry relative="1" as="geometry" />
        </mxCell>
        <mxCell id="6CWQDum9UevPDlx2oe-Q-18" value="反射率预处理&lt;div&gt;根据日期判定规则&lt;/div&gt;" style="rounded=1;whiteSpace=wrap;html=1;" vertex="1" parent="1">
          <mxGeometry x="240" y="280" width="160" height="80" as="geometry" />
        </mxCell>
        <mxCell id="6CWQDum9UevPDlx2oe-Q-23" style="edgeStyle=orthogonalEdgeStyle;rounded=0;orthogonalLoop=1;jettySize=auto;html=1;entryX=0.5;entryY=0;entryDx=0;entryDy=0;" edge="1" parent="1" source="6CWQDum9UevPDlx2oe-Q-21" target="6CWQDum9UevPDlx2oe-Q-10">
          <mxGeometry relative="1" as="geometry" />
        </mxCell>
        <mxCell id="6CWQDum9UevPDlx2oe-Q-21" value="重采样" style="rounded=1;whiteSpace=wrap;html=1;" vertex="1" parent="1">
          <mxGeometry x="240" y="400" width="160" height="80" as="geometry" />
        </mxCell>
        <mxCell id="6CWQDum9UevPDlx2oe-Q-30" style="edgeStyle=orthogonalEdgeStyle;rounded=0;orthogonalLoop=1;jettySize=auto;html=1;entryX=0;entryY=0.5;entryDx=0;entryDy=0;" edge="1" parent="1" source="6CWQDum9UevPDlx2oe-Q-27" target="6CWQDum9UevPDlx2oe-Q-8">
          <mxGeometry relative="1" as="geometry" />
        </mxCell>
        <mxCell id="6CWQDum9UevPDlx2oe-Q-27" value="&lt;div style=&quot;text-align: left;&quot;&gt;&lt;br&gt;&lt;/div&gt;&lt;div style=&quot;text-align: left;&quot;&gt;&lt;span style=&quot;background-color: initial;&quot;&gt;哨兵影像路径&lt;/span&gt;&lt;/div&gt;&lt;div style=&quot;text-align: left;&quot;&gt;&lt;span style=&quot;background-color: initial;&quot;&gt;哨兵影像日期&lt;/span&gt;&lt;/div&gt;&lt;div style=&quot;text-align: left;&quot;&gt;&lt;span style=&quot;background-color: initial;&quot;&gt;哨兵影像来源&lt;/span&gt;&lt;/div&gt;&lt;div style=&quot;text-align: left;&quot;&gt;&lt;span style=&quot;background-color: initial;&quot;&gt;输出结果路径&lt;/span&gt;&lt;/div&gt;&lt;div&gt;&lt;br&gt;&lt;/div&gt;" style="shape=parallelogram;perimeter=parallelogramPerimeter;whiteSpace=wrap;html=1;fixedSize=1;" vertex="1" parent="1">
          <mxGeometry x="40" y="160" width="160" height="80" as="geometry" />
        </mxCell>
        <mxCell id="6CWQDum9UevPDlx2oe-Q-38" style="edgeStyle=orthogonalEdgeStyle;rounded=0;orthogonalLoop=1;jettySize=auto;html=1;entryX=0.5;entryY=0;entryDx=0;entryDy=0;" edge="1" parent="1" source="6CWQDum9UevPDlx2oe-Q-32" target="6CWQDum9UevPDlx2oe-Q-33">
          <mxGeometry relative="1" as="geometry" />
        </mxCell>
        <mxCell id="6CWQDum9UevPDlx2oe-Q-32" value="&lt;div style=&quot;text-align: left;&quot;&gt;超分结果&lt;/div&gt;&lt;div&gt;&lt;br&gt;&lt;/div&gt;" style="shape=parallelogram;perimeter=parallelogramPerimeter;whiteSpace=wrap;html=1;fixedSize=1;" vertex="1" parent="1">
          <mxGeometry x="240" y="760" width="160" height="80" as="geometry" />
        </mxCell>
        <mxCell id="6CWQDum9UevPDlx2oe-Q-39" style="edgeStyle=orthogonalEdgeStyle;rounded=0;orthogonalLoop=1;jettySize=auto;html=1;" edge="1" parent="1" source="6CWQDum9UevPDlx2oe-Q-33" target="6CWQDum9UevPDlx2oe-Q-34">
          <mxGeometry relative="1" as="geometry" />
        </mxCell>
        <mxCell id="6CWQDum9UevPDlx2oe-Q-33" value="创建金字塔" style="rounded=1;whiteSpace=wrap;html=1;" vertex="1" parent="1">
          <mxGeometry x="240" y="880" width="160" height="80" as="geometry" />
        </mxCell>
        <mxCell id="6CWQDum9UevPDlx2oe-Q-34" value="开始" style="ellipse;whiteSpace=wrap;html=1;" vertex="1" parent="1">
          <mxGeometry x="240" y="1000" width="160" height="80" as="geometry" />
        </mxCell>
      </root>
    </mxGraphModel>
  </diagram>
</mxfile>
